<svg preserveAspectRatio="none" width="100%" height="100%" overflow="visible" style="display: block;" viewBox="0 0 50 55" fill="none" xmlns="http://www.w3.org/2000/svg">
<g id="Frame" clip-path="url(#clip0_0_259)">
<g id="Vector">
</g>
<path id="Vector_2" d="M27.0833 16.0417C28.167 15.7259 29.2238 15.3072 30.2417 14.7904C32.1396 13.7867 33.3542 12.4644 34.2771 10.3629C34.7083 9.38208 35.0729 8.23625 35.4167 6.875C35.7604 8.23854 36.125 9.38437 36.5563 10.3606C37.4792 12.4644 38.6937 13.7867 40.5917 14.7904C41.4792 15.2602 42.5187 15.6612 43.75 16.0417C42.6662 16.3582 41.6095 16.7776 40.5917 17.2952C38.6937 18.299 37.4792 19.6212 36.5563 21.7227C36.0821 22.8446 35.7007 24.0112 35.4167 25.2083C35.0729 23.8471 34.7083 22.699 34.2771 21.7227C33.3542 19.619 32.1396 18.299 30.2417 17.2952C29.2251 16.7743 28.1681 16.3548 27.0833 16.0417Z" stroke="var(--stroke-0, black)" stroke-width="2.75" stroke-linecap="round" stroke-linejoin="round"/>
<path id="Vector_3" d="M6.25 32.0833C7.41201 31.7293 8.56021 31.3226 9.69167 30.8642C14.9875 28.6802 17.7188 25.7354 19.725 19.8504C20.1446 18.5992 20.5144 17.3284 20.8333 16.0417C21.1522 17.3284 21.522 18.5992 21.9417 19.8504C23.9479 25.7331 26.6813 28.6802 31.975 30.8642C33.0167 31.2919 34.1639 31.6983 35.4167 32.0833C34.2547 32.4374 33.1065 32.8441 31.975 33.3025C26.6792 35.4865 23.9458 38.4313 21.9417 44.3163C21.522 45.5675 21.1522 46.8383 20.8333 48.125C20.5144 46.8383 20.1446 45.5675 19.725 44.3163C17.7188 38.4313 14.9854 35.4865 9.69167 33.3025C8.56021 32.8441 7.41201 32.4374 6.25 32.0833Z" stroke="var(--stroke-0, black)" stroke-width="2.75" stroke-linecap="round" stroke-linejoin="round"/>
</g>
<defs>
<clipPath id="clip0_0_259">
<rect width="50" height="55" fill="white"/>
</clipPath>
</defs>
</svg>
