<svg preserveAspectRatio="none" width="100%" height="100%" overflow="visible" style="display: block;" viewBox="0 0 82.4454 83.986" fill="none" xmlns="http://www.w3.org/2000/svg">
<path id="Fill 1" fill-rule="evenodd" clip-rule="evenodd" d="M54.3238 80.1334H54.3133C53.8683 80.1334 53.4781 80.3099 53.1531 80.5635C53.0905 80.6132 53.0122 80.6419 52.9561 80.6981C52.6442 81.0119 52.4641 81.4407 52.4249 81.9087C52.421 81.961 52.3949 82.0067 52.3949 82.0603C52.3949 82.2983 52.451 82.5205 52.5306 82.7297C52.5567 82.7976 52.5893 82.8565 52.622 82.9205C52.6924 83.0578 52.7773 83.1846 52.8791 83.3009C52.9287 83.3585 52.973 83.4173 53.0292 83.4683C53.1832 83.6082 53.3528 83.731 53.546 83.816H53.5473C53.7861 83.9219 54.0471 83.986 54.3238 83.986C55.1812 83.986 55.882 83.416 56.1313 82.6381C56.1979 82.4604 56.2435 82.2747 56.2449 82.0708C56.2449 82.0669 56.2475 82.0643 56.2475 82.0603C56.2475 80.9949 55.3861 80.1334 54.3238 80.1334M81.2356 57.163C81.049 57.0846 80.8415 57.0546 80.6287 57.0402C80.5909 57.0389 80.5609 57.018 80.5217 57.018H80.5113C79.4489 57.018 78.5928 57.8805 78.5928 58.9456C78.5928 59.2043 78.6476 59.4487 78.7403 59.6709C78.8055 59.8303 78.9126 59.9584 79.0131 60.093C79.0548 60.1439 79.0783 60.2067 79.1227 60.2537C79.4424 60.5935 79.8835 60.8026 80.3768 60.8418C80.3795 60.8418 80.3821 60.8431 80.3847 60.8444V60.8431C80.4317 60.847 80.4734 60.8705 80.5217 60.8705C81.584 60.8705 82.4454 60.008 82.4454 58.9456C82.4454 58.1353 81.9429 57.4479 81.2356 57.163M15.0279 23.1154H15.0174C13.9551 23.1154 13.099 23.9779 13.099 25.0417C13.099 26.1042 13.9655 26.968 15.0279 26.968C16.0889 26.968 16.9515 26.1042 16.9515 25.0417C16.9515 23.9779 16.0889 23.1154 15.0279 23.1154M15.0279 68.5757H15.0174C13.9551 68.5757 13.099 69.4372 13.099 70.5027C13.099 71.5655 13.9655 72.4283 15.0279 72.4283C16.0889 72.4283 16.9515 71.5655 16.9515 70.5027C16.9515 69.4372 16.0889 68.5757 15.0279 68.5757M28.1268 38.5257C29.1891 38.5257 30.0505 37.6618 30.0505 36.5994C30.0505 35.5343 29.1891 34.6731 28.1268 34.6731H28.1177C27.054 34.6731 26.1979 35.5343 26.1979 36.5994C26.1979 37.6618 27.0645 38.5257 28.1268 38.5257M15.0279 11.5577H15.0174C13.9551 11.5577 13.099 12.4202 13.099 13.484C13.099 14.5477 13.9655 15.4102 15.0279 15.4102C16.0889 15.4102 16.9515 14.5477 16.9515 13.484C16.9515 12.4202 16.0889 11.5577 15.0279 11.5577M15.0279 45.4603H15.0174C13.9551 45.4603 13.099 46.3228 13.099 47.3866C13.099 48.4504 13.9655 49.3129 15.0279 49.3129C16.0889 49.3129 16.9515 48.4504 16.9515 47.3866C16.9515 46.3228 16.0889 45.4603 15.0279 45.4603M15.0279 57.018H15.0174C13.9551 57.018 13.099 57.8805 13.099 58.9456C13.099 60.008 13.9655 60.8705 15.0279 60.8705C16.0889 60.8705 16.9515 60.008 16.9515 58.9456C16.9515 57.8805 16.0889 57.018 15.0279 57.018M28.1268 15.4102C29.1891 15.4102 30.0505 14.5477 30.0505 13.484C30.0505 12.4202 29.1891 11.5577 28.1268 11.5577H28.1177C27.054 11.5577 26.1979 12.4202 26.1979 13.484C26.1979 14.5477 27.0645 15.4102 28.1268 15.4102M28.1268 26.968C29.1891 26.968 30.0505 26.1042 30.0505 25.0417C30.0505 23.9779 29.1891 23.1154 28.1268 23.1154H28.1177C27.054 23.1154 26.1979 23.9779 26.1979 25.0417C26.1979 26.1042 27.0645 26.968 28.1268 26.968M28.1268 3.85257C29.1891 3.85257 30.0505 2.99005 30.0505 1.92628C30.0505 0.862515 29.1891 0 28.1268 0H28.1177C27.054 0 26.1979 0.862515 26.1979 1.92628C26.1979 2.99005 27.0645 3.85257 28.1268 3.85257M15.0279 34.6731H15.0174C13.9551 34.6731 13.099 35.5343 13.099 36.5994C13.099 37.6618 13.9655 38.5257 15.0279 38.5257C16.0889 38.5257 16.9515 37.6618 16.9515 36.5994C16.9515 35.5343 16.0889 34.6731 15.0279 34.6731M1.9302 45.4603H1.91845C0.856126 45.4603 0 46.3228 0 47.3866C0 48.4504 0.867872 49.3129 1.9302 49.3129C2.99253 49.3129 3.85257 48.4504 3.85257 47.3866C3.85257 46.3228 2.99253 45.4603 1.9302 45.4603M1.9302 34.6731H1.91845C0.856126 34.6731 0 35.5343 0 36.5994C0 37.6618 0.867872 38.5257 1.9302 38.5257C2.99253 38.5257 3.85257 37.6618 3.85257 36.5994C3.85257 35.5343 2.99253 34.6731 1.9302 34.6731M1.92955 57.018H1.9178C1.67628 57.018 1.45042 57.0729 1.24024 57.1565C1.13318 57.197 1.04441 57.2624 0.947802 57.3212C0.86686 57.3721 0.784613 57.4179 0.711504 57.4819C0.584869 57.5851 0.485651 57.7054 0.389043 57.8387C0.370765 57.8661 0.352488 57.8909 0.334211 57.921C0.22977 58.0831 0.152745 58.2529 0.100524 58.4437L0.0992189 58.445V58.4464C0.0548315 58.6084 0 58.7678 0 58.9456C0 59.7035 0.450402 60.3452 1.0888 60.6588V60.6601H1.0901C1.34468 60.7843 1.61884 60.8666 1.9191 60.8679C1.92302 60.8679 1.92563 60.8705 1.92955 60.8705C2.99223 60.8705 3.85257 60.008 3.85257 58.9456C3.85257 58.679 3.79904 58.4254 3.70113 58.1954C3.41 57.5041 2.72591 57.018 1.92955 57.018M67.4228 34.6731H67.4123C66.35 34.6731 65.4939 35.5343 65.4939 36.5994C65.4939 37.6618 66.3604 38.5257 67.4228 38.5257C68.4851 38.5257 69.3464 37.6618 69.3464 36.5994C69.3464 35.5343 68.4851 34.6731 67.4228 34.6731M1.92955 23.1154H1.9178C1.69847 23.1154 1.49612 23.1638 1.30551 23.2396C1.13188 23.2997 0.98044 23.3898 0.834222 23.4944C0.832917 23.4944 0.832917 23.4944 0.831611 23.4957V23.4957C0.339433 23.8446 0 24.3909 0 25.0417C0 25.124 0.0365543 25.1933 0.0469984 25.2743H0.0456929C0.0456929 25.2769 0.0469984 25.2782 0.048304 25.2795C0.108358 25.7487 0.318545 26.163 0.654062 26.4635C0.699755 26.5054 0.757197 26.5289 0.805501 26.5655C0.937358 26.6622 1.06399 26.7628 1.21935 26.8242C1.43737 26.9144 1.67497 26.968 1.92955 26.968C2.72591 26.968 3.41 26.4831 3.70113 25.7905C3.79904 25.5605 3.85257 25.307 3.85257 25.0417C3.85257 24.7764 3.79904 24.5229 3.70113 24.2929C3.41 23.6002 2.72591 23.1154 1.92955 23.1154M67.4228 45.4603H67.4123C66.35 45.4603 65.4939 46.3228 65.4939 47.3866C65.4939 48.4504 66.3604 49.3129 67.4228 49.3129C68.4851 49.3129 69.3464 48.4504 69.3464 47.3866C69.3464 46.3228 68.4851 45.4603 67.4228 45.4603M67.4228 23.1154H67.4123C66.35 23.1154 65.4939 23.9779 65.4939 25.0417C65.4939 26.1042 66.3604 26.968 67.4228 26.968C68.4851 26.968 69.3464 26.1042 69.3464 25.0417C69.3464 23.9779 68.4851 23.1154 67.4228 23.1154M67.4228 68.5757H67.4123C66.35 68.5757 65.4939 69.4372 65.4939 70.5027C65.4939 71.5655 66.3604 72.4283 67.4228 72.4283C68.4851 72.4283 69.3464 71.5655 69.3464 70.5027C69.3464 69.4372 68.4851 68.5757 67.4228 68.5757M67.4228 57.018H67.4123C66.35 57.018 65.4939 57.8805 65.4939 58.9456C65.4939 60.008 66.3604 60.8705 67.4228 60.8705C68.4851 60.8705 69.3464 60.008 69.3464 58.9456C69.3464 57.8805 68.4851 57.018 67.4228 57.018M54.3244 3.85257C55.3864 3.85257 56.2475 2.99005 56.2475 1.92628C56.2475 1.92628 56.2462 1.92498 56.2462 1.92367C56.2462 1.61133 56.1548 1.32775 56.0218 1.06638C56.0087 1.04155 55.9918 1.02326 55.9774 0.999733C55.8378 0.75274 55.6473 0.547566 55.4164 0.382904V0.382904H55.4151C55.1007 0.159435 54.738 0 54.3244 0H54.314C53.252 0 52.3949 0.862515 52.3949 1.92628C52.3949 2.99005 53.2625 3.85257 54.3244 3.85257M67.4228 11.5577H67.4123C66.35 11.5577 65.4939 12.4202 65.4939 13.484C65.4939 14.5477 66.3604 15.4102 67.4228 15.4102C68.4851 15.4102 69.3464 14.5477 69.3464 13.484C69.3464 12.4202 68.4851 11.5577 67.4228 11.5577M54.3238 23.1154H54.3133C53.251 23.1154 52.3949 23.9779 52.3949 25.0417C52.3949 26.1042 53.2615 26.968 54.3238 26.968C55.3861 26.968 56.2475 26.1042 56.2475 25.0417C56.2475 23.9779 55.3861 23.1154 54.3238 23.1154M54.3238 57.018H54.3133C53.251 57.018 52.3949 57.8805 52.3949 58.9456C52.3949 60.008 53.2615 60.8705 54.3238 60.8705C55.3861 60.8705 56.2475 60.008 56.2475 58.9456C56.2475 57.8805 55.3861 57.018 54.3238 57.018M54.3238 45.4603H54.3133C53.251 45.4603 52.3949 46.3228 52.3949 47.3866C52.3949 48.4504 53.2615 49.3129 54.3238 49.3129C55.3861 49.3129 56.2475 48.4504 56.2475 47.3866C56.2475 46.3228 55.3861 45.4603 54.3238 45.4603M54.3238 34.6731H54.3133C53.251 34.6731 52.3949 35.5343 52.3949 36.5994C52.3949 37.6618 53.2615 38.5257 54.3238 38.5257C55.3861 38.5257 56.2475 37.6618 56.2475 36.5994C56.2475 35.5343 55.3861 34.6731 54.3238 34.6731M54.3238 68.5757H54.3133C53.251 68.5757 52.3949 69.4372 52.3949 70.5027C52.3949 71.5655 53.2615 72.4283 54.3238 72.4283C55.3861 72.4283 56.2475 71.5655 56.2475 70.5027C56.2475 69.4372 55.3861 68.5757 54.3238 68.5757M28.1268 49.3129C29.1891 49.3129 30.0505 48.4504 30.0505 47.3866C30.0505 46.3228 29.1891 45.4603 28.1268 45.4603H28.1177C27.054 45.4603 26.1979 46.3228 26.1979 47.3866C26.1979 48.4504 27.0645 49.3129 28.1268 49.3129M29.4867 80.6981C29.4293 80.6406 29.351 80.6119 29.287 80.5635C28.9621 80.3099 28.5718 80.1334 28.1268 80.1334H28.1164C27.054 80.1334 26.1979 80.9949 26.1979 82.0603C26.1979 82.5832 26.4107 83.0539 26.75 83.4016C26.7513 83.4029 26.7513 83.4042 26.7526 83.4042C27.1023 83.7624 27.5878 83.986 28.1268 83.986C28.2286 83.986 28.3161 83.9441 28.4139 83.9284V83.9284C28.4152 83.9284 28.4165 83.9271 28.4178 83.9271C28.872 83.8565 29.2688 83.6474 29.5572 83.3166C29.6042 83.2656 29.6316 83.2029 29.672 83.1467C29.7595 83.0225 29.8521 82.9048 29.9095 82.7623C29.9957 82.5493 30.0466 82.3166 30.0479 82.0682C30.0479 82.0656 30.0505 82.0643 30.0505 82.0603C30.0505 81.5714 29.8534 81.1374 29.5546 80.7975C29.5272 80.7661 29.5154 80.7256 29.4867 80.6981M79.7717 26.8164C80.0028 26.9144 80.256 26.968 80.5224 26.968C80.8031 26.968 81.0655 26.9014 81.3057 26.7929C81.3135 26.789 81.3187 26.7825 81.3266 26.7786C81.5616 26.6688 81.7639 26.5147 81.9349 26.3239C82.2456 25.983 82.4454 25.5388 82.4454 25.0423C82.4454 23.9789 81.5837 23.1154 80.5224 23.1154H80.5119C79.4492 23.1154 78.5928 23.9789 78.5928 25.0423C78.5928 25.8393 79.0798 26.5238 79.7717 26.8164M80.5224 38.5257C81.5837 38.5257 82.4454 37.6618 82.4454 36.5994C82.4454 35.5343 81.5837 34.6731 80.5224 34.6731H80.5119C79.4492 34.6731 78.5928 35.5343 78.5928 36.5994C78.5928 37.6618 79.4584 38.5257 80.5224 38.5257M80.5224 49.3129C81.5837 49.3129 82.4454 48.4504 82.4454 47.3866C82.4454 46.3228 81.5837 45.4603 80.5224 45.4603H80.5119C79.4492 45.4603 78.5928 46.3228 78.5928 47.3866C78.5928 48.4504 79.4584 49.3129 80.5224 49.3129M41.2248 23.1154H41.2157C40.1534 23.1154 39.2959 23.9779 39.2959 25.0417C39.2959 26.1042 40.1625 26.968 41.2248 26.968C42.2872 26.968 43.1485 26.1042 43.1485 25.0417C43.1485 23.9779 42.2872 23.1154 41.2248 23.1154M41.2248 11.5577H41.2157C40.1534 11.5577 39.2959 12.4202 39.2959 13.484C39.2959 14.5477 40.1625 15.4102 41.2248 15.4102C42.2872 15.4102 43.1485 14.5477 43.1485 13.484C43.1485 12.4202 42.2872 11.5577 41.2248 11.5577M41.2248 0H41.2157C40.1534 0 39.2959 0.862515 39.2959 1.92628C39.2959 2.99005 40.1625 3.85257 41.2248 3.85257C42.2872 3.85257 43.1485 2.99005 43.1485 1.92628C43.1485 0.862515 42.2872 0 41.2248 0M28.1268 72.4283C29.1891 72.4283 30.0505 71.5655 30.0505 70.5027C30.0505 69.4372 29.1891 68.5757 28.1268 68.5757H28.1177C27.054 68.5757 26.1979 69.4372 26.1979 70.5027C26.1979 71.5655 27.0645 72.4283 28.1268 72.4283M28.1268 60.8705C29.1891 60.8705 30.0505 60.008 30.0505 58.9456C30.0505 57.8805 29.1891 57.018 28.1268 57.018H28.1177C27.054 57.018 26.1979 57.8805 26.1979 58.9456C26.1979 60.008 27.0645 60.8705 28.1268 60.8705M41.2248 34.6731H41.2157C40.1534 34.6731 39.2959 35.5343 39.2959 36.5994C39.2959 37.6618 40.1625 38.5257 41.2248 38.5257C42.2872 38.5257 43.1485 37.6618 43.1485 36.5994C43.1485 35.5343 42.2872 34.6731 41.2248 34.6731M54.3238 11.5577H54.3133C53.251 11.5577 52.3949 12.4202 52.3949 13.484C52.3949 14.5477 53.2615 15.4102 54.3238 15.4102C55.3861 15.4102 56.2475 14.5477 56.2475 13.484C56.2475 12.4202 55.3861 11.5577 54.3238 11.5577M41.2248 68.5757H41.2157C40.1534 68.5757 39.2959 69.4372 39.2959 70.5027C39.2959 71.5655 40.1625 72.4283 41.2248 72.4283C42.2872 72.4283 43.1485 71.5655 43.1485 70.5027C43.1485 69.4372 42.2872 68.5757 41.2248 68.5757M41.2248 80.1334H41.2157C40.1534 80.1334 39.2959 80.9962 39.2959 82.0603C39.2959 83.1245 40.1625 83.986 41.2248 83.986C42.2872 83.986 43.1485 83.1245 43.1485 82.0603C43.1485 80.9962 42.2872 80.1334 41.2248 80.1334M41.2248 57.018H41.2157C40.1534 57.018 39.2959 57.8805 39.2959 58.9456C39.2959 60.008 40.1625 60.8705 41.2248 60.8705C42.2872 60.8705 43.1485 60.008 43.1485 58.9456C43.1485 57.8805 42.2872 57.018 41.2248 57.018M41.2248 45.4603H41.2157C40.1534 45.4603 39.2959 46.3228 39.2959 47.3866C39.2959 48.4504 40.1625 49.3129 41.2248 49.3129C42.2872 49.3129 43.1485 48.4504 43.1485 47.3866C43.1485 46.3228 42.2872 45.4603 41.2248 45.4603" fill="var(--fill-0, #473BF0)"/>
</svg>
