<svg preserveAspectRatio="none" width="100%" height="100%" overflow="visible" style="display: block;" viewBox="0 0 19 19" fill="none" xmlns="http://www.w3.org/2000/svg">
<g id="Frame" clip-path="url(#clip0_0_216)">
<g id="Vector">
</g>
<path id="Vector_2" d="M17.1301 3.45641C17.3136 3.64199 17.4167 3.89366 17.4167 4.15607C17.4167 4.41849 17.3136 4.67015 17.1301 4.85573L7.34352 14.7519C7.15999 14.9374 6.91111 15.0417 6.65161 15.0417C6.3921 15.0417 6.14322 14.9374 5.95969 14.7519L1.06639 9.80383C0.888118 9.61718 0.789474 9.3672 0.791704 9.10773C0.793933 8.84825 0.896858 8.60004 1.07831 8.41656C1.25976 8.23308 1.50522 8.129 1.76182 8.12675C2.01843 8.12449 2.26564 8.22424 2.45021 8.40451L6.65161 12.6529L15.7463 3.45641C15.9298 3.27089 16.1787 3.16667 16.4382 3.16667C16.6977 3.16667 16.9466 3.27089 17.1301 3.45641Z" fill="var(--fill-0, #4402D3)"/>
</g>
<defs>
<clipPath id="clip0_0_216">
<rect width="19" height="19" fill="white"/>
</clipPath>
</defs>
</svg>
