<svg preserveAspectRatio="none" width="100%" height="100%" overflow="visible" style="display: block;" viewBox="0 0 17.0342 16.1397" fill="none" xmlns="http://www.w3.org/2000/svg">
<g id="logo-instagram">
<path id="Shape" fill-rule="evenodd" clip-rule="evenodd" d="M5.00557 0.0484192C5.91406 0.00941484 6.204 0 8.5171 0C10.8302 0 11.1201 0.00941484 12.0286 0.0484192C13.4134 0.108271 14.6288 0.42972 15.6047 1.35439C16.581 2.2794 16.9199 3.43137 16.9831 4.74273C17.0243 5.60351 17.0342 5.87822 17.0342 8.06986C17.0342 10.2615 17.0243 10.5362 16.9831 11.397C16.9199 12.709 16.5807 13.8607 15.6047 14.7853C14.6285 15.7103 13.4123 16.0315 12.0286 16.0913C11.1201 16.1303 10.8302 16.1397 8.5171 16.1397C6.204 16.1397 5.91406 16.1303 5.00557 16.0913C3.62083 16.0315 2.40537 15.71 1.42945 14.7853C0.453181 13.8603 0.114271 12.7084 0.0511026 11.397C0.00993662 10.5362 0 10.2615 0 8.06986C0 5.87822 0.00993662 5.60351 0.0511026 4.74273C0.114271 3.4307 0.453535 2.27906 1.42945 1.35439C2.40573 0.429384 3.62154 0.108271 5.00557 0.0484192ZM11.9587 1.50099C11.0605 1.46199 10.7912 1.45392 8.5171 1.45392C6.24303 1.45392 5.97368 1.46233 5.07548 1.50099C4.10631 1.54303 3.20669 1.72695 2.51467 2.38263C1.82266 3.0383 1.62854 3.89068 1.58418 4.80897C1.54301 5.66 1.5345 5.91521 1.5345 8.06986C1.5345 10.2245 1.54337 10.4797 1.58418 11.3308C1.62854 12.249 1.82266 13.1014 2.51467 13.7571C3.20669 14.4128 4.10631 14.5967 5.07548 14.6387C5.97332 14.6777 6.24268 14.6858 8.5171 14.6858C10.7915 14.6858 11.0609 14.6774 11.9587 14.6387C12.9279 14.5967 13.8275 14.4128 14.5195 13.7571C15.2115 13.1014 15.4057 12.249 15.45 11.3308C15.4912 10.4797 15.4997 10.2245 15.4997 8.06986C15.4997 5.91521 15.4908 5.66 15.45 4.80897C15.4057 3.89068 15.2115 3.0383 14.5195 2.38263C13.8275 1.72695 12.9279 1.54303 11.9587 1.50099Z" fill="var(--fill-0, #161C2D)"/>
<path id="Shape_2" fill-rule="evenodd" clip-rule="evenodd" d="M4.64569 8.43668C4.64569 6.20836 6.55209 4.40174 8.90424 4.40174C11.2564 4.40174 13.1628 6.20803 13.1628 8.43668C13.1628 10.6653 11.2564 12.4716 8.90424 12.4716C6.55209 12.4716 4.64569 10.665 4.64569 8.43668ZM6.13984 8.43667C6.13984 9.88315 7.3776 11.0559 8.90424 11.0559C10.4309 11.0559 11.6686 9.88315 11.6686 8.43667C11.6686 6.9902 10.4309 5.81744 8.90424 5.81744C7.3776 5.81744 6.13984 6.9902 6.13984 8.43667Z" fill="var(--fill-0, #161C2D)"/>
<ellipse id="Oval" cx="12.6464" cy="11.5061" rx="1.15981" ry="1.14702" fill="var(--fill-0, #161C2D)"/>
</g>
</svg>
