<svg preserveAspectRatio="none" width="100%" height="100%" overflow="visible" style="display: block;" viewBox="0 0 16.0879 13.4498" fill="none" xmlns="http://www.w3.org/2000/svg">
<g id="logo-twitter">
<path id="Path" d="M16.0879 1.5599C15.4846 1.83721 14.8477 2.01053 14.1774 2.11453C14.8477 1.69855 15.384 1.03993 15.6186 0.242651C14.9818 0.623958 14.278 0.901273 13.5071 1.0746C12.9038 0.415972 12.0324 0 11.0939 0C9.28403 0 7.80931 1.52523 7.80931 3.39711C7.80931 3.67442 7.84283 3.91707 7.90986 4.15972C5.19504 4.02107 2.74834 2.66916 1.10604 0.589294C0.837909 1.10926 0.670327 1.66389 0.670327 2.28785C0.670327 3.46644 1.24011 4.50637 2.14505 5.13033C1.60879 5.09566 1.10604 4.957 0.636811 4.71435V4.74902C0.636811 6.41291 1.77637 7.79948 3.2846 8.11146C3.01647 8.18079 2.71482 8.21545 2.41318 8.21545C2.21208 8.21545 1.97746 8.18079 1.77637 8.14612C2.21208 9.49803 3.41867 10.5033 4.85987 10.5033C3.72032 11.4046 2.31263 11.9592 0.770876 11.9592C0.502745 11.9592 0.234614 11.9592 0 11.9245C1.47472 12.8951 3.18405 13.4498 5.06097 13.4498C11.1274 13.4498 14.4455 8.25012 14.4455 3.74375C14.4455 3.60509 14.4455 3.43177 14.4455 3.29311C15.0824 2.84248 15.6521 2.25318 16.0879 1.5599Z" fill="var(--fill-0, #161C2D)"/>
</g>
</svg>
