<svg preserveAspectRatio="none" width="100%" height="100%" overflow="visible" style="display: block;" viewBox="0 0 17.0342 16.1397" fill="none" xmlns="http://www.w3.org/2000/svg">
<g id="logo-linkedin">
<path id="Shape" fill-rule="evenodd" clip-rule="evenodd" d="M0.709758 0H16.3244C16.7148 0 17.0342 0.30262 17.0342 0.672489V15.4672C17.0342 15.8371 16.7148 16.1397 16.3244 16.1397H0.709758C0.319391 16.1397 0 15.8371 0 15.4672V0.672489C0 0.30262 0.319391 0 0.709758 0ZM2.51964 13.7524H5.03928V6.0524H2.51964V13.7524ZM3.79721 5.01004C2.98098 5.01004 2.3422 4.4048 2.3422 3.63144C2.3422 2.85808 2.98098 2.25284 3.79721 2.25284C4.61343 2.25284 5.25221 2.85808 5.25221 3.63144C5.25221 4.37118 4.61343 5.01004 3.79721 5.01004ZM11.9949 13.7524H14.4791V9.51571C14.4791 7.431 14.0177 5.85065 11.4626 5.85065C10.256 5.85065 9.4043 6.48951 9.0849 7.09475H9.04942V6.0524H6.63624V13.7524H9.15588V9.95283C9.15588 8.9441 9.36881 7.96899 10.6819 7.96899C11.9949 7.96899 11.9949 9.11222 11.9949 10.0201V13.7524Z" fill="var(--fill-0, #161C2D)"/>
</g>
</svg>
