<svg preserveAspectRatio="none" width="100%" height="100%" overflow="visible" style="display: block;" viewBox="0 0 17.9805 17.0364" fill="none" xmlns="http://www.w3.org/2000/svg">
<g id="logo-facebook">
<path id="Path" d="M17.9805 8.56957C17.9798 4.01037 14.2353 0.249704 9.45958 0.011855C4.68389 -0.225994 0.548743 3.14223 0.0497077 7.67654C-0.449327 12.2108 2.86243 16.324 7.5859 17.0364V11.047H5.30358V8.56957H7.5859V6.68133C7.5859 4.53329 8.92821 3.34678 10.9813 3.34678C11.6555 3.35569 12.3282 3.41155 12.9939 3.51391V5.62338H11.8601C11.4687 5.57382 11.0749 5.69665 10.7899 5.95718C10.5049 6.21772 10.3597 6.58767 10.3953 6.96255V8.56957H12.8889L12.4899 11.047H10.3953V17.0364C14.7642 16.3775 17.9812 12.7866 17.9805 8.56957Z" fill="var(--fill-0, #473BF0)"/>
</g>
</svg>
